<svg width="95" height="48" viewBox="0 0 95 48" fill="none" xmlns="http://www.w3.org/2000/svg">
<path d="M21.42 24.845C20.19 24.845 19.065 24.695 18.045 24.395C17.025 24.065 16.14 23.6 15.39 23C14.67 22.4 14.1 21.68 13.68 20.84C13.26 20 13.05 19.055 13.05 18.005C13.05 17.045 13.23 16.175 13.59 15.395C13.98 14.585 14.49 13.88 15.12 13.28C15.75 12.65 16.47 12.125 17.28 11.705C18.09 11.285 18.93 10.97 19.8 10.76C20.31 10.58 20.535 10.355 20.475 10.085C20.415 9.785 20.145 9.47 19.665 9.14L20.16 8.42C20.85 8.66 21.405 8.975 21.825 9.365C22.275 9.755 22.5 10.145 22.5 10.535C22.5 10.955 22.305 11.315 21.915 11.615C21.555 11.915 21.03 12.155 20.34 12.335C18.84 12.755 17.625 13.475 16.695 14.495C15.795 15.485 15.345 16.655 15.345 18.005C15.345 19.565 15.855 20.855 16.875 21.875C17.925 22.865 19.44 23.36 21.42 23.36C23.4 23.36 24.9 22.865 25.92 21.875C26.97 20.855 27.495 19.565 27.495 18.005C27.495 16.805 27.135 15.71 26.415 14.72C25.695 13.7 24.525 12.89 22.905 12.29L23.67 11.435C25.5 11.915 26.97 12.71 28.08 13.82C29.22 14.93 29.79 16.325 29.79 18.005C29.79 19.085 29.58 20.045 29.16 20.885C28.74 21.725 28.155 22.445 27.405 23.045C26.685 23.615 25.8 24.065 24.75 24.395C23.73 24.695 22.62 24.845 21.42 24.845ZM39.06 27.95C40.23 28.19 40.785 28.61 40.725 29.21C40.695 29.54 40.5 29.825 40.14 30.065C39.78 30.275 39.285 30.35 38.655 30.29C38.325 30.14 37.77 30.005 36.99 29.885C36.24 29.765 35.475 29.675 34.695 29.615C34.185 29.585 33.405 29.57 32.355 29.57C31.335 29.57 30.12 29.585 28.71 29.615V34.295C28.71 35.045 28.62 35.87 28.44 36.77C28.26 37.67 28.05 38.345 27.81 38.795H26.91C26.85 38.585 26.805 38.3 26.775 37.94C26.745 37.58 26.7 37.19 26.64 36.77C26.61 36.35 26.58 35.93 26.55 35.51C26.55 35.06 26.55 34.655 26.55 34.295V29.66L22.86 29.795C22.02 29.855 21.105 29.915 20.115 29.975C19.155 30.005 18.18 30.05 17.19 30.11C17.46 30.53 17.55 30.92 17.46 31.28C17.37 31.7 17.205 32.195 16.965 32.765C16.755 33.335 16.5 33.905 16.2 34.475C15.93 35.045 15.63 35.585 15.3 36.095C14.97 36.605 14.64 37.01 14.31 37.31L13.41 37.13C13.56 36.8 13.71 36.395 13.86 35.915C14.04 35.435 14.19 34.94 14.31 34.43C14.46 33.89 14.595 33.395 14.715 32.945C14.835 32.465 14.925 32.09 14.985 31.82C15.045 31.58 15.075 31.325 15.075 31.055C15.075 30.785 15.06 30.515 15.03 30.245C13.14 30.395 11.43 30.53 9.9 30.65C8.37 30.77 7.32 30.86 6.75 30.92C6.24 30.98 5.715 30.935 5.175 30.785C4.665 30.635 4.17 30.44 3.69 30.2C3.24 29.96 2.835 29.69 2.475 29.39C2.115 29.06 1.83 28.745 1.62 28.445L2.295 27.905C2.835 28.205 3.465 28.46 4.185 28.67C4.905 28.85 5.64 28.955 6.39 28.985C6.54 28.985 6.93 28.985 7.56 28.985C8.19 28.955 8.94 28.925 9.81 28.895C10.71 28.835 11.7 28.79 12.78 28.76C13.86 28.7 14.925 28.655 15.975 28.625C17.025 28.565 18.03 28.52 18.99 28.49C19.95 28.43 20.775 28.385 21.465 28.355L34.29 27.77C35.19 27.74 36.045 27.725 36.855 27.725C37.695 27.725 38.43 27.8 39.06 27.95ZM33.885 45.185C34.215 45.455 34.305 45.755 34.155 46.085C34.035 46.415 33.855 46.64 33.615 46.76C33.495 46.79 33.015 46.805 32.175 46.805C31.365 46.835 30.36 46.85 29.16 46.85C27.96 46.88 26.67 46.895 25.29 46.895C23.94 46.925 22.665 46.94 21.465 46.94C20.265 46.97 19.245 46.985 18.405 46.985C17.595 46.985 17.13 46.985 17.01 46.985C15.66 46.985 14.64 46.655 13.95 45.995C13.26 45.365 12.93 44.6 12.96 43.7L13.005 40.685C13.005 40.235 12.675 39.89 12.015 39.65C11.385 39.41 10.41 39.185 9.09 38.975L9.27 38.255C9.84 38.225 10.47 38.21 11.16 38.21C11.85 38.18 12.495 38.225 13.095 38.345C13.695 38.435 14.19 38.615 14.58 38.885C14.97 39.155 15.165 39.545 15.165 40.055C15.165 40.475 15.15 40.82 15.12 41.09C15.09 41.39 15.075 41.705 15.075 42.035L15.03 43.655C15 44.315 15.075 44.78 15.255 45.05C15.465 45.35 15.99 45.485 16.83 45.455L25.605 45.32C25.965 45.32 26.34 45.29 26.73 45.23C27.15 45.2 27.54 45.155 27.9 45.095C28.29 45.035 28.635 44.975 28.935 44.915C29.235 44.855 29.475 44.795 29.655 44.735C30.705 44.465 31.575 44.39 32.265 44.51C32.955 44.63 33.495 44.855 33.885 45.185ZM60.4993 8.825C61.3093 9.035 62.0893 9.35 62.8393 9.77C63.6193 10.19 64.2193 10.655 64.6393 11.165C65.0593 11.705 65.1343 12.17 64.8643 12.56C64.6243 12.95 64.3093 13.34 63.9193 13.73C62.9893 14.63 61.8793 15.575 60.5893 16.565C59.2993 17.555 57.9193 18.53 56.4493 19.49C55.0093 20.42 53.5243 21.305 51.9943 22.145C50.4643 22.985 48.9793 23.705 47.5393 24.305L46.9093 23.405C48.2593 22.745 49.6093 22.01 50.9593 21.2C52.3393 20.36 53.6443 19.49 54.8743 18.59C56.1043 17.69 57.2443 16.775 58.2943 15.845C59.3443 14.915 60.2593 14.015 61.0393 13.145C61.4893 12.695 61.7743 12.335 61.8943 12.065C62.0143 11.765 61.9393 11.42 61.6693 11.03C61.2193 10.37 60.6193 9.77 59.8693 9.23L60.4993 8.825ZM63.5593 15.935C65.1493 16.565 66.6343 17.105 68.0143 17.555C69.3943 17.975 70.5493 18.38 71.4793 18.77C72.4093 19.16 73.1893 19.58 73.8193 20.03C74.4793 20.48 74.8543 21.02 74.9443 21.65C75.0343 22.25 74.8543 22.685 74.4043 22.955C73.9843 23.225 73.5643 23.285 73.1443 23.135C72.9643 22.595 72.4543 22.025 71.6143 21.425C70.8043 20.825 69.8593 20.24 68.7793 19.67C67.6993 19.07 66.5743 18.515 65.4043 18.005C64.2643 17.495 63.2743 17.075 62.4343 16.745L63.5593 15.935ZM47.1343 29.435C46.6243 29.495 46.1143 29.45 45.6043 29.3C45.0943 29.15 44.6143 28.955 44.1643 28.715C43.7143 28.475 43.3093 28.205 42.9493 27.905C42.5893 27.575 42.3043 27.26 42.0943 26.96L42.7693 26.375C43.3093 26.675 43.9693 26.93 44.7493 27.14C45.5593 27.35 46.3393 27.47 47.0893 27.5C47.6293 27.5 48.5143 27.485 49.7443 27.455C50.9743 27.395 52.3243 27.335 53.7943 27.275C55.2943 27.215 56.7793 27.155 58.2493 27.095C59.7193 27.005 60.9643 26.93 61.9843 26.87L74.8093 26.285C75.7093 26.255 76.5643 26.24 77.3743 26.24C78.2143 26.24 78.9493 26.315 79.5793 26.465C80.7493 26.705 81.3043 27.125 81.2443 27.725C81.2143 28.055 81.0193 28.34 80.6593 28.58C80.2993 28.79 79.8043 28.865 79.1743 28.805C78.8443 28.655 78.2893 28.52 77.5093 28.4C76.7593 28.28 75.9943 28.19 75.2143 28.13C74.8243 28.1 74.2393 28.085 73.4593 28.085C72.6793 28.085 71.7643 28.1 70.7143 28.13C69.6943 28.13 68.5543 28.145 67.2943 28.175C66.0343 28.205 64.7293 28.25 63.3793 28.31C62.0293 28.37 60.5143 28.46 58.8343 28.58C57.1543 28.67 55.5343 28.775 53.9743 28.895C52.4143 29.015 51.0043 29.135 49.7443 29.255C48.4843 29.345 47.6143 29.405 47.1343 29.435ZM68.9593 38.21C69.0193 37.79 69.0793 37.25 69.1393 36.59C69.2293 35.93 69.2743 35.375 69.2743 34.925C69.2743 34.595 69.0943 34.43 68.7343 34.43C68.4043 34.43 67.8643 34.445 67.1143 34.475C66.3643 34.475 65.5243 34.505 64.5943 34.565C63.6643 34.595 62.6893 34.64 61.6693 34.7C60.6493 34.73 59.6893 34.76 58.7893 34.79C57.9193 34.82 57.1543 34.865 56.4943 34.925C55.8643 34.955 55.4443 34.97 55.2343 34.97C54.6043 35.03 54.0343 34.88 53.5243 34.52C53.0143 34.16 52.6843 33.71 52.5343 33.17L53.0293 32.765C53.3593 32.975 53.7643 33.125 54.2443 33.215C54.7543 33.275 55.2643 33.305 55.7743 33.305C56.4043 33.305 57.2443 33.29 58.2943 33.26C59.3443 33.23 60.4993 33.185 61.7593 33.125C62.4193 33.095 63.1093 33.065 63.8293 33.035C64.5493 32.975 65.2393 32.93 65.8993 32.9C66.5593 32.84 67.1293 32.795 67.6093 32.765C68.1193 32.735 68.4643 32.72 68.6443 32.72C68.8543 32.72 69.1243 32.78 69.4543 32.9C69.8143 33.02 70.1443 33.17 70.4443 33.35C70.7443 33.53 70.9993 33.725 71.2093 33.935C71.4493 34.145 71.5693 34.34 71.5693 34.52C71.5693 34.73 71.5243 35.015 71.4343 35.375C71.3443 35.735 71.2243 36.11 71.0743 36.5C70.9243 36.89 70.7443 37.265 70.5343 37.625C70.3543 37.985 70.1593 38.255 69.9493 38.435L68.9593 38.21ZM54.7393 41.27C54.1393 41.3 53.5693 41.15 53.0293 40.82C52.4893 40.46 52.0693 40.01 51.7693 39.47L52.1743 38.975C52.5643 39.215 53.0293 39.38 53.5693 39.47C54.1093 39.53 54.7693 39.59 55.5493 39.65C56.0593 39.68 56.8693 39.695 57.9793 39.695C59.0893 39.665 60.2143 39.62 61.3543 39.56C64.1443 39.47 66.3043 39.335 67.8343 39.155C68.3743 39.095 68.8243 39.08 69.1843 39.11C69.5443 39.11 69.8743 39.14 70.1743 39.2C70.5943 39.29 70.8943 39.44 71.0743 39.65C71.2543 39.83 71.3443 40.025 71.3443 40.235C71.3443 40.715 71.0743 40.985 70.5343 41.045C69.8143 40.895 68.7943 40.835 67.4743 40.865C66.1543 40.865 64.7593 40.895 63.2893 40.955C62.5093 40.985 61.6993 41.015 60.8593 41.045C60.0193 41.075 59.2093 41.105 58.4293 41.135C57.6493 41.165 56.9293 41.195 56.2693 41.225C55.6393 41.255 55.1293 41.27 54.7393 41.27ZM56.1343 47.885C55.8643 47.885 55.5793 47.825 55.2793 47.705C54.9793 47.615 54.7093 47.48 54.4693 47.3C54.2293 47.15 54.0343 46.97 53.8843 46.76C53.7343 46.55 53.6593 46.34 53.6593 46.13L53.7043 44.15C53.7043 43.82 53.6893 43.505 53.6593 43.205C53.6293 42.905 53.5693 42.65 53.4793 42.44L54.2893 42.08C54.7993 42.2 55.1893 42.44 55.4593 42.8C55.7293 43.19 55.8643 43.625 55.8643 44.105V45.455C55.8643 45.815 55.8943 46.055 55.9543 46.175C56.0143 46.295 56.2393 46.355 56.6293 46.355C57.1393 46.355 57.8443 46.34 58.7443 46.31C59.6443 46.31 60.5893 46.295 61.5793 46.265C62.5993 46.265 63.5743 46.25 64.5043 46.22C65.4643 46.19 66.2443 46.16 66.8443 46.13C67.2643 46.1 67.7293 46.055 68.2393 45.995C68.7493 45.935 69.2893 45.86 69.8593 45.77C70.3993 45.68 70.8793 45.62 71.2993 45.59C71.7493 45.59 72.1543 45.665 72.5143 45.815C73.0243 45.995 73.2793 46.295 73.2793 46.715C73.3093 47.135 73.1143 47.435 72.6943 47.615C72.5143 47.615 72.0343 47.615 71.2543 47.615C70.4743 47.645 69.5293 47.66 68.4193 47.66C67.3093 47.69 66.1243 47.72 64.8643 47.75C63.6043 47.78 62.3893 47.795 61.2193 47.795C60.0493 47.825 58.9993 47.84 58.0693 47.84C57.1693 47.87 56.5243 47.885 56.1343 47.885Z" fill="#111111"/>
<rect x="80.25" y="8.11621" width="14.25" height="0.019" fill="#111111" stroke="#111111" stroke-width="0.75"/>
<rect x="81.2002" y="11.6787" width="14.25" height="0.019" transform="rotate(-30 81.2002 11.6787)" fill="#111111" stroke="#111111" stroke-width="0.75"/>
<rect x="83.8047" y="14.291" width="14.25" height="0.019" transform="rotate(-60 83.8047 14.291)" fill="#111111" stroke="#111111" stroke-width="0.75"/>
<rect x="87.3652" y="15.25" width="14.25" height="0.019" transform="rotate(-90 87.3652 15.25)" fill="#111111" stroke="#111111" stroke-width="0.75"/>
<rect x="90.9297" y="14.2988" width="14.25" height="0.019" transform="rotate(-120 90.9297 14.2988)" fill="#111111" stroke="#111111" stroke-width="0.75"/>
<rect x="93.541" y="11.6963" width="14.25" height="0.019" transform="rotate(-150 93.541 11.6963)" fill="#111111" stroke="#111111" stroke-width="0.75"/>
</svg>
