<svg width="52" height="64" viewBox="0 0 52 64" fill="none" xmlns="http://www.w3.org/2000/svg">
<path d="M45.0603 50.6016H26.7144C25.9993 50.6016 25.4197 51.1639 25.4197 51.8577C25.4197 52.5514 25.9993 53.1138 26.7144 53.1138H45.0603C45.7753 53.1138 46.355 52.5514 46.355 51.8577C46.355 51.1639 45.7753 50.6016 45.0603 50.6016Z" fill="black"/>
<path d="M45.0603 61.4883H26.7144C25.9993 61.4883 25.4197 62.0507 25.4197 62.7444C25.4197 63.4381 25.9993 64.0005 26.7144 64.0005H45.0603C45.7753 64.0005 46.355 63.4381 46.355 62.7444C46.355 62.0507 45.7753 61.4883 45.0603 61.4883Z" fill="black"/>
<path d="M45.0603 39.7148H26.7144C25.9993 39.7148 25.4197 40.2772 25.4197 40.9709C25.4197 41.6647 25.9993 42.2271 26.7144 42.2271H45.0603C45.7753 42.2271 46.355 41.6647 46.355 40.9709C46.355 40.2772 45.7753 39.7148 45.0603 39.7148Z" fill="black"/>
<path d="M12.9796 26.314C7.20393 26.314 2.51196 21.6221 2.51196 15.8464C2.51196 10.0708 7.20393 5.37891 12.9796 5.37891C18.7553 5.37891 23.4473 10.0708 23.4473 15.8464C23.4473 21.6221 18.7553 26.314 12.9796 26.314ZM12.9796 7.84186C8.57088 7.84186 4.97494 11.4378 4.97494 15.8464C4.97494 20.2551 8.57088 23.851 12.9796 23.851C17.3883 23.851 20.9843 20.2551 20.9843 15.8464C20.9843 11.4378 17.3883 7.84186 12.9796 7.84186Z" fill="black"/>
<path d="M20.4146 58.1358H1.6745V37.7207C1.6745 36.9741 2.27945 36.3633 3.01884 36.3633C3.75823 36.3633 4.36318 36.9741 4.36318 37.7207V55.421H20.428C21.1674 55.421 21.7724 56.0318 21.7724 56.7784C21.7724 57.5249 21.1674 58.1358 20.428 58.1358H20.4146Z" fill="black"/>
<path d="M43.0243 33.2156L35.4701 20.8921L27.9159 33.2156C27.5402 33.8376 26.7217 34.032 26.0777 33.6692C25.4336 33.3063 25.2324 32.5159 25.6081 31.8938L34.1284 17.9894V10.8623C34.1284 10.1495 34.7322 9.56641 35.4701 9.56641C36.2081 9.56641 36.8119 10.1495 36.8119 10.8623V17.9894L45.3322 31.8938C45.7079 32.5159 45.4932 33.3063 44.8626 33.6692C44.2185 34.032 43.4 33.8247 43.0243 33.2156Z" fill="black"/>
<path d="M20.4422 29.6641H1.31736C0.592813 29.6641 0 30.2635 0 30.9962C0 31.7288 0.592813 32.3283 1.31736 32.3283H8.3389V37.8913C8.3389 38.6239 8.93171 39.2234 9.65626 39.2234C10.3808 39.2234 10.9736 38.6239 10.9736 37.8913V32.3283H16.1509V46.7548C16.1509 47.4875 16.7437 48.0869 17.4682 48.0869C18.1928 48.0869 18.7856 47.4875 18.7856 46.7548V32.3283H20.4553C21.1799 32.3283 21.7727 31.7288 21.7727 30.9962C21.7727 30.2635 21.1799 29.6641 20.4553 29.6641H20.4422Z" fill="black"/>
<path d="M51.9514 4.55773L51.5355 3.30086C51.4147 2.95688 51.039 2.75843 50.6901 2.8775L47.7112 3.83007V0.747445C47.7112 0.377001 47.416 0.0859375 47.0403 0.0859375H45.6984C45.3227 0.0859375 45.0275 0.377001 45.0275 0.747445V3.77715L42.0888 2.7452C41.74 2.62613 41.3508 2.79812 41.2301 3.1421L40.7872 4.38573C40.6665 4.72972 40.8409 5.11339 41.1898 5.23246L44.2358 6.3041L42.3706 8.84429C42.1559 9.13536 42.223 9.55872 42.5182 9.7704L43.6051 10.551C43.9003 10.7627 44.3297 10.6965 44.5444 10.4055L46.3828 7.91818L48.2211 10.4055C48.4358 10.6965 48.8652 10.7627 49.1604 10.551L50.2473 9.7704C50.5425 9.55872 50.6096 9.13536 50.3949 8.84429L48.5565 6.35703L51.5355 5.40446C51.8843 5.28538 52.0856 4.91494 51.9648 4.57096L51.9514 4.55773Z" fill="black"/>
</svg>
