<svg width="100%" height="100%" viewBox="0 0 25 32" fill="currentColor" xmlns="http://www.w3.org/2000/svg">
<path d="M6.81825 4.11355C6.81825 4.66583 7.26596 5.11355 7.81825 5.11355H18.8862C19.4385 5.11355 19.8862 5.56126 19.8862 6.11355V23.9505C19.8862 24.4982 20.3267 24.9439 20.8743 24.9504L23.9878 24.9875C24.5447 24.9942 24.9998 24.5445 24.9998 23.9876V1C24.9998 0.447715 24.552 0 23.9998 0H7.81825C7.26596 0 6.81825 0.447715 6.81825 1V4.11355Z" fill="currentColor"/>
<path d="M0.000244141 7.81641C0.000244141 7.26412 0.447959 6.81641 1.00024 6.81641H17.1818C17.734 6.81641 18.1818 7.26412 18.1818 7.81641V30.816C18.1818 31.3683 17.734 31.816 17.1818 31.816H1.00024C0.447959 31.816 0.000244141 31.3683 0.000244141 30.816V7.81641Z" fill="currentColor"/>
</svg>
